<svg width="20" height="20" viewBox="0 0 20 20" fill="none" xmlns="http://www.w3.org/2000/svg">
<g clip-path="url(#clip0_3712_1483)">
<path d="M15 9.53846C15.1538 9.76923 15.3077 10 15.3846 10.3846H12.9231C12.9231 10.3077 12.9231 10.1538 13 10C13.0769 9.84615 13.0769 9.76923 13.2308 9.61538C13.3077 9.46154 13.4615 9.38462 13.6154 9.30769C13.7692 9.23077 14 9.15385 14.2308 9.15385C14.5385 9.23077 14.8462 9.30769 15 9.53846ZM7.92308 9C8.07692 8.84615 8.23077 8.61538 8.23077 8.30769C8.23077 8.15385 8.23077 8 8.15385 7.84615C8.07692 7.76923 8 7.61538 7.92308 7.61538C7.84615 7.53846 7.69231 7.53846 7.53846 7.46154H5.53846V9.23077H7.23077C7.46154 9.23077 7.69231 9.15385 7.92308 9ZM7.30769 10.3077H5.53846V12.3846H7.30769C7.46154 12.3846 7.61539 12.3846 7.76923 12.3077C7.92308 12.3077 8.07692 12.2308 8.15385 12.1538C8.23077 12.0769 8.38462 12 8.46154 11.8462C8.53846 11.6923 8.53846 11.5385 8.53846 11.3846C8.53846 11 8.46154 10.6923 8.23077 10.5385C8 10.3846 7.69231 10.3077 7.30769 10.3077ZM20 3.76923V16.2308C20 18.3077 18.3077 20 16.2308 20H3.76923C1.69231 20 0 18.3077 0 16.2308V3.76923C0 1.69231 1.69231 0 3.76923 0H16.2308C18.3077 0 20 1.69231 20 3.76923ZM12.6154 7.38462H15.6923V6.61539H12.6154V7.38462ZM10.1538 11.5385C10.1538 11.0769 10.0769 10.6923 9.84615 10.3077C9.61538 10 9.30769 9.76923 8.84615 9.61538C9.15385 9.46154 9.46154 9.23077 9.61538 9C9.76923 8.76923 9.84615 8.46154 9.84615 8.07692C9.84615 7.5 9.76923 7.46154 9.69231 7.15385C9.53846 6.92308 9.38462 6.69231 9.23077 6.61539C9 6.46154 8.76923 6.38462 8.46154 6.30769C8.07692 6.15385 7.76923 6.15385 7.38462 6.15385H3.84615V13.6923H7.53846C7.84615 13.6923 8.23077 13.6154 8.53846 13.5385C8.84615 13.4615 9.15385 13.3077 9.38462 13.1538C9.61538 13 9.84615 12.7692 10 12.4615C10.0769 12.2308 10.1538 11.9231 10.1538 11.5385ZM12.9231 11.3077H16.8462C16.8462 10.8462 16.8462 10.4615 16.7692 10.0769C16.6923 9.69231 16.5385 9.30769 16.3077 9.07692C16.0769 8.76923 15.7692 8.53846 15.4615 8.38462C15.0769 8.23077 14.6923 8.07692 14.2308 8.07692C13.8462 8.07692 13.4615 8.15385 13.0769 8.30769C12.7692 8.46154 12.4615 8.69231 12.1538 8.92308C11.9231 9.15385 11.6923 9.46154 11.6154 9.84615C11.4615 10.2308 11.3846 10.6154 11.3846 11C11.3846 11.5769 11.4615 11.8462 11.6154 12.1538C11.7692 12.5385 11.9231 12.8462 12.1538 13.0769C12.3846 13.3077 12.6923 13.5385 13 13.6923C13.3846 13.8462 13.7692 13.9231 14.1538 13.9231C14.7692 13.9231 15.3077 13.7692 15.7692 13.4615C16.2308 13.1538 16.5385 12.6923 16.7692 12.0769H15.4615C15.3846 12.2308 15.3077 12.3846 15.0769 12.5385C14.8462 12.6923 14.6154 12.7692 14.3077 12.7692C13.9231 12.7692 13.5385 12.6923 13.3077 12.4615C13.0769 12.1538 12.9231 11.7692 12.9231 11.3077Z" fill="white"/>
</g>
<defs>
<clipPath id="clip0_3712_1483">
<rect width="20" height="20" fill="white"/>
</clipPath>
</defs>
</svg>
